<?xml version="1.0" standalone="no"?>
<!DOCTYPE svg PUBLIC "-//W3C//DTD SVG 20010904//EN"
 "http://www.w3.org/TR/2001/REC-SVG-20010904/DTD/svg10.dtd">
<svg version="1.0" xmlns="http://www.w3.org/2000/svg"
 width="225.000000pt" height="225.000000pt" viewBox="0 0 225.000000 225.000000"
 preserveAspectRatio="xMidYMid meet">
<metadata>
Created by potrace 1.11, written by Peter Selinger 2001-2013
</metadata>
<g transform="translate(0.000000,225.000000) scale(0.100000,-0.100000)"
fill="#000000" stroke="none">
<path d="M1029 2177 c-42 -39 -127 -119 -189 -177 -62 -58 -131 -122 -154
-144 -116 -109 -270 -253 -294 -274 -29 -26 -136 -127 -239 -225 l-63 -59 0
-633 c1 -528 3 -635 15 -645 10 -8 113 -10 382 -8 l368 4 140 38 c77 21 149
41 161 43 12 3 53 -5 91 -16 232 -69 247 -71 582 -71 285 0 311 1 319 18 6 10
10 283 10 642 l0 625 -77 75 c-42 41 -137 131 -211 200 -151 140 -247 230
-365 340 -77 73 -175 164 -219 205 -12 11 -50 46 -83 78 -34 31 -70 57 -80 57
-10 0 -52 -33 -94 -73z m176 -99 c28 -25 66 -61 86 -80 107 -99 277 -258 309
-288 20 -19 88 -82 150 -140 114 -106 127 -118 255 -238 l70 -65 1 -588 1
-589 -276 0 c-263 0 -280 2 -371 26 -83 22 -106 28 -130 34 -3 0 22 15 55 33
276 146 416 324 500 638 13 51 23 95 20 97 -2 2 0 15 5 28 14 35 24 153 25
269 l0 100 -26 3 c-48 6 -269 -85 -400 -164 -62 -37 -69 -40 -69 -23 0 26 -95
210 -155 299 -73 110 -87 124 -113 116 -24 -8 -150 -199 -216 -329 l-53 -104
-93 53 c-132 76 -323 154 -375 154 -34 0 -39 -27 -31 -158 25 -382 141 -671
337 -837 71 -60 258 -165 294 -165 8 0 15 -4 15 -10 0 -5 -3 -10 -6 -10 -3 0
-55 -11 -116 -25 -105 -24 -126 -25 -419 -25 l-308 0 0 587 0 588 47 44 c26
24 101 94 167 155 118 110 214 199 330 308 33 31 76 70 95 88 19 18 67 62 105
98 211 201 204 195 223 181 9 -8 40 -35 67 -61z m-14 -695 c40 -60 114 -199
139 -263 l19 -48 -62 -53 c-57 -50 -123 -117 -139 -142 -3 -6 -21 7 -40 28
-45 53 -108 114 -135 132 -13 8 -23 22 -23 30 0 36 182 362 202 363 4 0 21
-21 39 -47z m634 -235 c-35 -433 -181 -718 -428 -838 -98 -47 -117 -50 -82
-12 72 76 131 192 159 312 19 82 15 247 -9 349 -20 86 -22 81 75 137 50 29
270 130 288 133 2 1 1 -36 -3 -81z m-1248 29 c54 -24 136 -65 182 -92 74 -45
82 -52 78 -75 -3 -14 -14 -65 -25 -115 -23 -106 -22 -257 3 -349 20 -77 71
-178 114 -228 33 -38 33 -40 10 -33 -41 12 -132 66 -181 107 -117 97 -228 305
-264 491 -2 12 -8 45 -13 72 -26 131 -34 265 -16 265 7 0 57 -19 112 -43z
m467 -321 l50 -57 -18 -29 c-47 -80 -77 -207 -77 -324 l0 -89 -26 38 c-95 139
-123 322 -78 513 l17 73 41 -34 c23 -19 64 -60 91 -91z m347 67 c14 -63 17
-227 6 -283 -16 -81 -56 -177 -95 -228 -18 -24 -18 -23 -19 47 -1 91 -26 200
-63 276 -27 57 -28 61 -13 85 20 31 151 160 163 160 5 0 14 -26 21 -57z m-196
-371 c9 -64 6 -180 -6 -225 -22 -82 -71 -105 -88 -39 -30 118 -30 212 -1 318
31 113 39 119 67 45 13 -34 25 -78 28 -99z"/>
</g>
</svg>
